<?xml version="1.0" encoding="utf-8"?>
<!-- Generator: Adobe Illustrator 23.0.6, SVG Export Plug-In . SVG Version: 6.00 Build 0)  -->
<svg version="1.1" id="图层_1" xmlns="http://www.w3.org/2000/svg" xmlns:xlink="http://www.w3.org/1999/xlink" x="0px" y="0px"
	 viewBox="0 0 784 70" style="enable-background:new 0 0 784 70;" xml:space="preserve">
<style type="text/css">
	.st0{display:none;fill:#236DEB;}
	.st1{font-family:'MicrosoftYaHei-Bold';}
	.st2{font-size:60px;}
	.st3{fill:#236DEB;}
	.st4{fill:#FE7D06;}
</style>
<text transform="matrix(1 0 0 1 2.0002 56.959)" class="st0 st1 st2">中国跨境电子商务综合试验区</text>
<g>
	<path class="st3" d="M27.5,6.9h8.9v10.4h21.9v32.9h-8.7v-4H36.4V65h-8.9V46.1H14.3v4.2H5.6v-33h21.9V6.9z M14.3,38h13.2V25.3H14.3
		V38z M49.6,25.3H36.4V38h13.2V25.3z"/>
	<path class="st3" d="M65.3,64.4V9.4h53.3v55h-8.4v-2.1H73.7v2.1H65.3z M110.3,16.6H73.7v38.6h36.6V16.6z M107,37.8h-4.4
		c1.6,1.4,3.3,2.9,4.9,4.5l-3.1,2.8h4v6.9H75.3v-6.9h12v-7.3H76.8v-6.9h10.4v-4.2H75.9v-6.9h31.9v6.9H95.1v4.2H107V37.8z M96.7,40.7
		l3.4-2.9h-5v7.3h5.7C99.3,43.3,97.9,41.9,96.7,40.7z"/>
	<path class="st3" d="M123.8,63.1l-0.8-8.3c0.6-0.1,1.2-0.1,1.8-0.2V34.3h5.5V54l3.1-0.4V30.6h-8V10.4h19.2v17
		c3.1-2.3,5.8-4.9,7.9-7.9h-6.2V13h10c0.9-1.9,1.6-3.9,2.1-6.1l7.7,0.6c-0.5,1.9-1.2,3.8-1.9,5.5h15.5v6.6h-9.3
		c2.9,3.7,6.5,6.4,10.9,8.2c-1.2,2.2-2.3,4.3-3.2,6.4c-2.4-1.2-4.5-2.6-6.4-4.1v2.1h-20.6v-1.1c-1.6,1.3-3.4,2.6-5.2,3.7
		c-0.8-1.8-1.6-3.2-2.2-4.3h-3.5v7h4.3v6.8h-4.3v8.3c2.9-0.4,5-0.7,6.4-0.9c-0.1,1-0.2,3.6-0.2,7.9
		C141.1,60.4,133.6,61.5,123.8,63.1z M132.3,24h5.5v-6.1h-5.5V24z M176,61c0,0-6,0-7,0s-0.6-5.2-0.5-6.2c0-0.2,0.1-1.2,0.2-3.2
		h-19.2l2.3-10h-6.6v-6.2h33.8v6.2h-19.8l-0.9,3.8h18.1 M163.1,19.5h-2c-1.4,2.3-2.9,4.5-4.7,6.5h11.1
		C165.8,24.1,164.3,21.9,163.1,19.5z"/>
	<path class="st3" d="M188.6,59.7V28.9h-5v-8h5V7h7.9v13.8h4.1v8h-4.1V53L188.6,59.7z M203,30h34.2v21.3h-8v4.3
		c0,1.4,0.7,2.2,2.2,2.2c1.1,0,1.8-0.3,2.3-0.9c0.4-0.6,0.8-2.4,1-5.4c2.1,1,4.3,1.8,6.6,2.5c-0.2,1.6-0.5,3.3-1,5.1
		c-0.4,1.8-1.4,3.1-2.9,4c-1.5,0.9-3.4,1.3-5.9,1.3h-2.6c-4.8,0-7.2-2.2-7.2-6.5v-6.6H218c-1.2,6.8-5.9,11.5-14.2,14.2
		c-1.3-1.8-3.1-4.1-5.3-6.9c6.4-1.7,10.2-4.1,11.5-7.3h-7V30z M238.7,17.2h-9.8l5.3,1.3c-0.7,1-1.5,2-2.3,3h8.5v5.9h-38.6v-5.9h7
		l-2.1-3.1l5.5-1.2h-9.1v-5.9h12.5c-0.5-1-1.1-2.1-1.8-3.2l9.7-1.3c0.4,1.4,0.9,2.9,1.3,4.6h13.8V17.2z M229.8,35.5h-19.2v2.6h19.2
		V35.5z M229.8,45.8v-2.6h-19.2v2.6H229.8z M218.1,21.5h4.7c1-1.4,1.8-2.9,2.6-4.3h-10.5C216,18.5,217,19.9,218.1,21.5z"/>
	<path class="st3" d="M294.1,14.6v31.8c1.9,0.8,4.2,1.6,6.9,2.3c-1.1,6.9-2.5,11-4.4,12.4c-1.9,1.4-4.4,2.1-7.5,2.1H275
		c-6.4,0-9.6-2.9-9.6-8.7v-5.9H254v4.6h-8.4V14.6h19.9V7.4h8.5v7.2H294.1z M254,21.9v6h11.5v-6H254z M254,41.3h11.5v-6H254V41.3z
		 M285.7,21.9H274v6h11.7V21.9z M285.7,41.3v-6H274v6H285.7z M277.6,56h8.8c1.4,0,2.6-0.2,3.4-0.7c0.8-0.5,1.4-1.2,1.6-2.1
		c0.2-0.9,0.5-2.4,0.9-4.5H274v4.2C274,55,275.2,56,277.6,56z"/>
	<path class="st3" d="M303.3,32.8h25.1V26l14.2-7.9h-35.3v-7.8h49.3v7.8l-19.3,11.5v3.2h23.5v8h-23.5V52c0,4-0.9,7-2.6,8.9
		c-1.8,2-4.5,2.9-8.2,2.9l-10.8-0.1c-0.5-2.9-1.3-5.9-2.2-8.9c3.5,0.4,6.9,0.6,10.1,0.6c3.2,0,4.8-1.7,4.8-5.2v-9.5h-25.1V32.8z"/>
	<path class="st3" d="M364.2,12h23L386,7.2l9.8-0.4l0.6,5.2h23.4v6.4h-55.7V12z M366.5,24h11.6l-3.3-4.1h9.6l3.1,4.1h9.3
		c1.5-1.8,2.6-3.1,3.3-4.1h9.5c-1.3,1.4-2.5,2.8-3.7,4.1h12.1v30.1c0,2.7-0.5,4.9-1.6,6.5s-2.5,2.6-4.4,3.1
		c-1.9,0.5-5.9,0.7-12.1,0.8c-0.5-3.1-1.1-5.6-1.5-7.3c2.2,0.2,4.4,0.4,6.5,0.4c3.6,0,5.3-1.6,5.3-4.9V42l-1.9,2.4l-4.3-3v14.5
		h-16.5v2.8h-7.1V42.1l-3.8,2.7c-0.1-0.1-0.8-1.1-2.3-3.1v22.7h-7.7V24z M385.4,30.6l4.2,4.6c-1.6,1.2-3.1,2.4-4.7,3.6H400l-5.4-3.6
		l3.8-4.5c4,2.2,7.9,4.6,11.7,6.9v-7.5h-35.9v8.3C378.3,35.7,382,33.1,385.4,30.6z M396.7,49.5v-4.6h-9.3v4.6H396.7z"/>
	<path class="st3" d="M444.1,35.4h8.4c-0.2,1.9-0.5,3.7-0.8,5.5h24.8l-1,13.4c-0.2,2.2-0.8,4.1-2,5.5c-1.1,1.4-2.6,2.5-4.6,3.2
		c-1.9,0.7-5.7,1-11.4,1c-2,0-4,0-6.2-0.1c-0.4-2.3-1-4.9-1.9-7.9c4.3,0.4,8.1,0.5,11.3,0.5c1.7,0,3-0.3,3.9-0.8s1.5-1.2,1.7-2.1
		s0.4-2.8,0.5-5.6h-17.1c-3,8.2-10.2,13.9-21.6,17.1c-1.5-2.1-3.4-4.3-5.5-6.7c9-2.1,14.9-5.6,17.9-10.3h-15.8v-7.1h18.3
		C443.6,39.2,443.9,37.3,444.1,35.4z M476.1,12v6.3c-3.8,3.6-8.3,6.7-13.5,9.4c5.5,1.2,11.7,1.9,18.5,2.1c-1.2,2.9-2.3,5.5-3.2,7.8
		c-10-0.9-18.6-2.7-25.8-5.4c-7.6,2.7-16.2,4.7-26,6.2c-0.8-2.1-1.9-4.5-3.2-7.3c7.3-0.7,13.9-1.8,19.8-3.3
		c-2.8-1.7-5.2-3.5-7.3-5.5c-2.3,1.9-4.7,3.6-7.3,5.2c-1.3-1.8-2.9-3.8-4.7-5.9c7.6-4.3,13.2-9.2,16.9-14.5h8.8
		c-1.1,1.7-2.3,3.4-3.6,5H476.1z M452.6,24.7c4.5-1.7,8.5-3.8,11.9-6.2h-22.8C444.8,21,448.5,23,452.6,24.7z"/>
	<path class="st3" d="M505.3,13.4h13.4l-1.8-5.1l8.3-1.6c0.8,2.2,1.4,4.4,2.1,6.7h12.8v10.8H533v-4h-20.9v4h-6.9v-3.5
		c-4,7.2-8.1,13.8-12.5,19.8c3.1-0.4,6.4-0.8,9.7-1.3c-0.3,2.5-0.4,4.8-0.5,7c-7.8,0.7-13.3,1.5-16.6,2.2l-2-6.8
		c2.2-2.2,4.7-5.6,7.4-10c-2.5,0.2-4.6,0.5-6.1,0.7l-2.1-6.7c2.5-3.1,5.4-9.4,8.8-18.9l7.3,2.2c-2.7,5.8-5.5,11.2-8.6,16.1
		c1.3,0,2.8-0.1,4.5-0.1c1.2-2.2,2.4-4.6,3.7-7.2l6.9,3V13.4z M484,61.1l-1.2-7.8c7.1-0.8,13.5-1.7,19.2-2.8
		c-0.1,3.2-0.2,5.7-0.2,7.5C497,58.7,491,59.7,484,61.1z M509.1,45.7l6.3,2.5c-2.3,4.7-4.8,9.3-7.4,13.7c-2.2-1.3-4.3-2.4-6.2-3.4
		C504.3,54.5,506.8,50.3,509.1,45.7z M504.5,43.9v-7h36.4v7h-14.4v13.7c0,2.2-0.6,3.8-1.7,4.9c-1.2,1.1-2.9,1.7-5.1,1.7
		c-2.3,0-4.4,0-6.6,0c-0.4-2.3-0.9-4.7-1.5-7.1c2.2,0.1,3.8,0.2,5,0.2c1.4,0,2.2-0.8,2.2-2.3V43.9H504.5z M507.5,25.4h30.2v7h-30.2
		V25.4z M534.3,45.6c2.3,3.8,4.6,8,6.9,12.7l-6.5,3.1c-2.2-4.9-4.4-9.2-6.6-13.1L534.3,45.6z"/>
	<path class="st3" d="M579.4,7.1l-2.1,2.6c5.4,6.8,13.3,12.5,23.8,17c-2.1,2.6-3.8,4.9-5.3,7c-2.5-1.2-4.9-2.5-7.1-3.9V33h-33.3
		v-3.5c-2.3,1.5-4.7,3-7.3,4.5c-1.6-2.4-3.3-4.7-5.2-6.9c12.1-6.3,20.6-12.9,25.4-20H579.4z M550.2,65.1V37.9h43.6v27.2h-8v-2.7
		h-27.7v2.7H550.2z M585.8,45.6h-27.7v9.3h27.7V45.6z M571.9,15.6c-2.7,3.2-6.4,6.5-10.9,9.9h21.4C578.6,22.6,575.1,19.3,571.9,15.6
		z"/>
	<path class="st3" d="M619.8,32.2H639v7.6h-5.7v12.2l7-1.1c-0.2,3.7-0.2,6.4-0.1,8.1c-2.5,0.4-9.1,1.4-19.9,3.2l-1.1-5
		c-3.6,2.7-6.5,5.1-8.6,7.1l-4.2-5.7c1-1.3,1.5-2.9,1.5-4.9V33.3h-5v-7.6h12.7v24.7c1.6-1.2,3.4-2.5,5.5-3.9c0.1,1,0.3,3.4,0.8,7.2
		l3.5-0.5V39.8h-5.8V32.2z M610.7,7.7c2.7,3.5,5.1,7.1,7.4,10.7l-6.9,4.2c-2.1-3.8-4.4-7.5-6.9-11.1L610.7,7.7z M618.9,18.4h21.3
		L640,7.2h8l0.1,11.2h5.8c-2.4-3.3-4.3-5.6-5.5-7l4.9-3.9c2.6,2.7,4.7,5.1,6.5,7.3l-4.5,3.5h5.4v7.7h-12.2
		c0.3,6.2,0.6,11.4,1.1,15.6s1,7.5,1.5,9.7s0.9,3.5,1.1,3.8s0.5,0.5,0.8,0.5c0.7-0.2,1.3-3.3,1.8-9.3c2.7,1.1,4.9,1.9,6.9,2.5
		c-0.8,6.6-1.9,10.9-3.3,13S655,65,652.7,65c-2.4,0-4.4-0.8-5.9-2.4c-1.5-1.6-2.8-4.9-3.9-10c-1-5.1-1.8-13.9-2.4-26.5h-21.6V18.4z"
		/>
	<path class="st3" d="M662.7,45.6c4.3-0.4,8.8-0.9,13.6-1.5c0,2.5,0.1,4.8,0.1,7c-4.4,0.5-8.6,1.2-12.8,1.9L662.7,45.6z M672.7,19
		l-1.6,14.6h4.2l1.3-16.4h-12.8v-7h20.3l-1.9,23.4h3.4c-0.4,11.3-0.7,18.4-1.1,21.4c-0.3,4.7-2.1,7.5-5.4,8.2
		c-1.6,0.2-5.3,0.4-11.2,0.4c-0.4-2.9-0.7-5.5-1.2-7.9c2.4,0.3,5,0.4,7.8,0.5c2,0,3.1-0.9,3.2-2.8c0.2-2.6,0.4-6.8,0.6-12.8h-14.8
		l2.1-21.7H672.7z M714,32.1h-22.3v-3.3c-1.4,1.3-2.8,2.5-4.3,3.7c-1.1-2.4-2.4-4.9-3.8-7.4c6.3-4.6,11.4-10.5,15.2-17.7h8.9
		l-1.3,2.1c4.6,6.7,9.7,11.6,15.4,14.9c-1.4,2.2-2.7,4.6-4,7.3c-1.3-0.9-2.6-1.8-3.8-2.8V32.1z M686,55.9h20
		c2.3-7.1,4-13.9,5.2-20.5l7.3,1.9c-1.6,6-3.4,12.2-5.5,18.6h7.3v7H686V55.9z M692.6,36.6c1.9,4.8,3.8,10.1,5.6,15.6l-6.4,2.3
		c-1.2-4.5-2.9-9.7-5.2-15.7L692.6,36.6z M702.3,16.2c-1.8,2.8-4.2,5.8-7.1,9h14.7C707.1,22.3,704.6,19.3,702.3,16.2z M703.5,34.2
		c1.4,5.3,2.6,10.5,3.6,15.7l-6.5,1.6c-0.8-4.9-1.9-10.2-3.3-15.9L703.5,34.2z"/>
	<path class="st3" d="M734.8,54.5h45.5v7.9h-53.8v-52h52v7.9h-43.7V54.5z M737,24.9l5.6-5.7l13,11.3c3.3-3.7,6.5-7.7,9.3-11.8
		l7.3,4.8c-3.3,4.4-6.7,8.6-10.3,12.6L775,48.1l-6.9,6.1c-4-4.1-8.1-8.1-12.2-12.1c-4.4,4.3-9.1,8.3-13.9,12c-1-1.2-2.9-3.3-5.9-6.3
		c4.9-3.5,9.5-7.4,13.7-11.5C745.6,32.5,741.3,28.6,737,24.9z"/>
</g>
<path class="st4" d="M150,55c0,0,26,11,52-9C202,46,180,85,150,55z"/>
</svg>
