<?xml version="1.0" encoding="utf-8"?>
<!-- Generator: Adobe Illustrator 23.0.6, SVG Export Plug-In . SVG Version: 6.00 Build 0)  -->
<svg version="1.1" id="组_8" xmlns="http://www.w3.org/2000/svg" xmlns:xlink="http://www.w3.org/1999/xlink" x="0px" y="0px"
	 viewBox="0 0 1024 1024" style="enable-background:new 0 0 1024 1024;" xml:space="preserve">
<style type="text/css">
	.st0{fill:#ECF3F8;}
	.st1{fill:#E6F1FD;}
	.st2{fill:url(#SVGID_1_);}
	.st3{fill-rule:evenodd;clip-rule:evenodd;fill:#2863B2;}
	.st4{fill-rule:evenodd;clip-rule:evenodd;fill:#F1F1F1;}
	.st5{fill-rule:evenodd;clip-rule:evenodd;fill:#E3E3E3;}
	.st6{fill-rule:evenodd;clip-rule:evenodd;fill:#C4C4C3;}
	.st7{fill-rule:evenodd;clip-rule:evenodd;fill:#408CEE;}
	.st8{fill-rule:evenodd;clip-rule:evenodd;fill:#BBD7F8;}
	.st9{fill-rule:evenodd;clip-rule:evenodd;fill:#82BAF6;}
	.st10{fill-rule:evenodd;clip-rule:evenodd;fill:#448FEE;}
	.st11{fill-rule:evenodd;clip-rule:evenodd;fill:#98CBF9;}
	.st12{fill:#3A80D5;}
	.st13{fill:#2863B2;}
	.st14{opacity:0.3;}
	.st15{fill:#FFFFFF;}
	.st16{fill:#DCE3EA;}
	.st17{opacity:0.3;fill:#FFFFFF;}
	.st18{fill:#0970CE;enable-background:new    ;}
	.st19{fill-rule:evenodd;clip-rule:evenodd;fill:#137DF0;}
	.st20{fill-rule:evenodd;clip-rule:evenodd;fill:#0064AF;}
	.st21{fill:#C0762F;}
	.st22{fill:#FE9C3F;}
</style>
<g>
	<ellipse id="椭圆_1" class="st0" cx="575.7" cy="774.7" rx="358" ry="140.5"/>
	<circle id="椭圆_4_拷贝" class="st1" cx="143.7" cy="514.2" r="37"/>
	<circle id="椭圆_4" class="st1" cx="182.7" cy="327.2" r="104"/>
	<linearGradient id="SVGID_1_" gradientUnits="userSpaceOnUse" x1="175.6667" y1="609.7089" x2="518.6667" y2="609.7089">
		<stop  offset="0" style="stop-color:#0362E1"/>
		<stop  offset="1" style="stop-color:#549AEE"/>
	</linearGradient>
	<polygon class="st2" points="175.7,374.4 175.7,644.8 518.7,845 515.7,527 	"/>
	<path id="矩形_15" class="st3" d="M154.7,322.1l332,191.1v52l-332-191.1V322.1z"/>
	<path id="形状_3" class="st4" d="M154.7,322.1l332,191l200.9-274.3L154.7,322.1z"/>
	<path id="形状_4" class="st5" d="M509.7,123.2l-355,198.9l528-68.9L509.7,123.2z"/>
	<path id="形状_5" class="st6" d="M508.7,123.2l374,162l-203-34L508.7,123.2z"/>
	<g id="组_7">
		<path id="圆角矩形_2" class="st7" d="M168.4,810l95.6-55.2c0.3-0.2,0.8-0.1,1,0.3l2.6,4.4c0.2,0.3,0.1,0.8-0.3,1c0,0,0,0,0,0
			l-95.6,55.2c-0.3,0.2-0.8,0.1-1-0.3l-2.6-4.4C168,810.6,168.1,810.1,168.4,810C168.4,810,168.4,810,168.4,810z"/>
		<path id="圆角矩形_2_拷贝" class="st8" d="M166.8,851.7l95.5-55.1c0.3-0.2,0.8-0.1,1,0.3c0,0,0,0,0,0l2.5,4.3
			c0.2,0.3,0.1,0.8-0.3,1c0,0,0,0,0,0L170,857.2c-0.3,0.2-0.8,0.1-1-0.3c0,0,0,0,0,0l-2.5-4.3C166.3,852.3,166.4,851.9,166.8,851.7
			C166.8,851.7,166.8,851.7,166.8,851.7z"/>
		<path id="圆角矩形_2_拷贝_2" class="st8" d="M223.4,841.3l95.6-55.2c0.3-0.2,0.8-0.1,1,0.3c0,0,0,0,0,0l2.5,4.3
			c0.2,0.3,0.1,0.8-0.3,1c0,0,0,0,0,0l-95.6,55.2c-0.3,0.2-0.8,0.1-1-0.3c0,0,0,0,0,0l-2.5-4.3C222.9,841.9,223,841.5,223.4,841.3
			C223.4,841.3,223.4,841.3,223.4,841.3z"/>
	</g>
	<path id="矩形_7_拷贝_4" class="st9" d="M104.4,817l51.3,20.5v65L104.4,882V817z M104.4,817l-51.3,20.5v65l51.3-20.5V817z"/>
	<path id="矩形_7" class="st10" d="M53.1,838.4l51.3,20.5v65l-51.3-20.5V838.4z"/>
	<path id="矩形_7_拷贝" class="st11" d="M155.6,838.4l-51.3,20.5v65l51.3-20.5V838.4z"/>
	<g>
		<polygon id="矩形_13" class="st12" points="514.7,549 852.7,357.1 852.7,651.6 514.7,843.5 		"/>
		<polygon id="矩形_14" class="st13" points="486.4,513 880.9,289 880.9,341.1 486.4,565.1 		"/>
		<g class="st14">
			<polygon id="矩形_16" class="st15" points="536.3,582.3 579.9,557.5 579.9,611.2 536.3,636 			"/>
			<polygon id="矩形_16_拷贝" class="st15" points="536.3,653.4 579.9,628.6 579.9,682.4 536.3,707.1 			"/>
			<polygon id="矩形_16_拷贝_2" class="st15" points="536.3,725.5 579.9,700.8 579.9,754.5 536.3,779.2 			"/>
		</g>
		<path id="矩形_15_1_" class="st16" d="M532.3,539l51.5-29.3c1.1-0.6,2-0.2,2,0.9v22c0,1.1-0.9,2.5-2,3.1L532.3,565
			c-1.1,0.6-2,0.2-2-0.9v-22C530.4,541,531.2,539.6,532.3,539z"/>
		<polygon id="矩形_13_拷贝" class="st16" points="543.2,558.8 573,541.9 573,784.3 543.2,801.2 		"/>
		<path id="矩形_15_2_" class="st16" d="M532.3,801l51.5-29.3c1.1-0.6,2-0.2,2,0.9v22c0,1.1-0.9,2.5-2,3.1L532.3,827
			c-1.1,0.6-2,0.2-2-0.9v-22C530.4,803,531.2,801.6,532.3,801z"/>
		<g class="st14">
			<polygon id="矩形_16_1_" class="st15" points="599.1,546.7 642.7,521.9 642.7,575.6 599.1,600.4 			"/>
			<polygon id="矩形_16_拷贝_1_" class="st15" points="599.1,617.8 642.7,593 642.7,646.7 599.1,671.5 			"/>
			<polygon id="矩形_16_拷贝_2_1_" class="st15" points="599.1,689.9 642.7,665.1 642.7,718.8 599.1,743.6 			"/>
		</g>
		<g>
			<path id="矩形_15_4_" class="st16" d="M595.1,503.3l51.5-29.3c1.1-0.6,2-0.2,2,0.9v22c0,1.1-0.9,2.5-2,3.1l-51.5,29.3
				c-1.1,0.6-2,0.2-2-0.9v-22C593.1,505.4,594,504,595.1,503.3z"/>
			<polygon id="矩形_13_拷贝_1_" class="st16" points="606,523.2 635.8,506.3 635.8,748.7 606,765.6 			"/>
			<path id="矩形_15_3_" class="st16" d="M595.1,765.4l51.5-29.3c1.1-0.6,2-0.2,2,0.9v22c0,1.1-0.9,2.5-2,3.1l-51.5,29.3
				c-1.1,0.6-2,0.2-2-0.9v-22C593.1,767.4,594,766,595.1,765.4z"/>
		</g>
		<polygon id="矩形_16_2_" class="st17" points="661.9,511 705.5,486.2 705.5,540 661.9,564.7 		"/>
		<polygon id="矩形_16_拷贝_2_" class="st17" points="661.9,582.1 705.5,557.4 705.5,611.1 661.9,635.8 		"/>
		<polygon id="矩形_16_拷贝_2_2_" class="st17" points="661.9,654.2 705.5,629.5 705.5,683.2 661.9,707.9 		"/>
		<path id="矩形_15_6_" class="st16" d="M657.9,467.7l51.5-29.3c1.1-0.6,2-0.2,2,0.9v22c0,1.1-0.9,2.5-2,3.1l-51.5,29.3
			c-1.1,0.6-2,0.2-2-0.9v-22C655.9,469.7,656.8,468.3,657.9,467.7z"/>
		<polygon id="矩形_13_拷贝_2_" class="st16" points="668.8,487.5 698.5,470.7 698.5,713 668.8,729.9 		"/>
		<path id="矩形_15_5_" class="st16" d="M657.9,729.7l51.5-29.3c1.1-0.6,2-0.2,2,0.9v22c0,1.1-0.9,2.5-2,3.1l-51.5,29.3
			c-1.1,0.6-2,0.2-2-0.9v-22C655.9,731.7,656.8,730.3,657.9,729.7z"/>
		<g class="st14">
			<polygon id="矩形_16_3_" class="st15" points="724.6,475.4 768.2,450.6 768.2,504.3 724.6,529.1 			"/>
			<polygon id="矩形_16_拷贝_3_" class="st15" points="724.6,546.5 768.2,521.7 768.2,575.4 724.6,600.2 			"/>
			<polygon id="矩形_16_拷贝_2_3_" class="st15" points="724.6,618.6 768.2,593.8 768.2,647.5 724.6,672.3 			"/>
		</g>
		<g>
			<path id="矩形_15_8_" class="st16" d="M720.7,432.1l51.5-29.3c1.1-0.6,2-0.2,2,0.9v22c0,1.1-0.9,2.5-2,3.1l-51.5,29.3
				c-1.1,0.6-2,0.2-2-0.9v-22C718.7,434.1,719.6,432.7,720.7,432.1z"/>
			<polygon id="矩形_13_拷贝_3_" class="st16" points="731.6,451.9 761.3,435 761.3,677.4 731.6,694.3 			"/>
			<path id="矩形_15_7_" class="st16" d="M720.7,694.1l51.5-29.3c1.1-0.6,2-0.2,2,0.9v22c0,1.1-0.9,2.5-2,3.1l-51.5,29.3
				c-1.1,0.6-2,0.2-2-0.9v-22C718.7,696.1,719.6,694.7,720.7,694.1z"/>
		</g>
		<g class="st14">
			<polygon id="矩形_16_4_" class="st15" points="787.4,439.7 831,415 831,468.7 787.4,493.4 			"/>
			<polygon id="矩形_16_拷贝_4_" class="st15" points="787.4,510.8 831,486.1 831,539.8 787.4,564.5 			"/>
			<polygon id="矩形_16_拷贝_2_4_" class="st15" points="787.4,582.9 831,558.2 831,611.9 787.4,636.6 			"/>
		</g>
		<g>
			<path id="矩形_15_10_" class="st16" d="M783.4,396.4l51.5-29.3c1.1-0.6,2-0.2,2,0.9v22c0,1.1-0.9,2.5-2,3.1l-51.5,29.3
				c-1.1,0.6-2,0.2-2-0.9v-22C781.5,398.4,782.4,397,783.4,396.4z"/>
			<polygon id="矩形_13_拷贝_4_" class="st16" points="794.4,416.3 824.1,399.4 824.1,641.7 794.4,658.6 			"/>
			<path id="矩形_15_9_" class="st16" d="M783.4,658.4l51.5-29.3c1.1-0.6,2-0.2,2,0.9v22c0,1.1-0.9,2.5-2,3.1l-51.5,29.3
				c-1.1,0.6-2,0.2-2-0.9v-22C781.5,660.5,782.4,659.1,783.4,658.4z"/>
		</g>
	</g>
	<polygon class="st18" points="492.7,907.9 486.7,901.6 486.7,876.5 507.8,863.7 507.8,838.6 515.9,834.8 873.5,628.2 879.7,634.3 
		878.9,651.6 902,637.4 908.7,643.3 	"/>
	<path id="矩形_17" class="st19" d="M513.7,843.9l366-209.6v26l-366,210.7V843.9z"/>
	<path id="矩形_17_拷贝" class="st20" d="M492.7,881.9l416-238.7v26l-416,238.7V881.9z"/>
	<g>
		<g>
			<g>
				<path class="st21" d="M473.8,515.4c0,0,146.1-211.4,164.1-234.8s51.7-51.7,84.6-43.1s175,42.6,175,42.6L477.7,518.2L473.8,515.4
					z"/>
			</g>
			<g>
				<path class="st21" d="M760.9,172.4l-86.7,49.5l-2.7-63.1l75.8-43.3c6-3.4,14.9,0.8,15.2,6.7L760.9,172.4z"/>
			</g>
			<g>
				<polygon class="st21" points="685.5,250.1 667.2,260.5 663.1,163.6 681.4,153.1 				"/>
			</g>
		</g>
	</g>
	<g>
		<path class="st22" d="M477.7,518.2c0,0,146.1-211.4,164.1-234.8c18-23.4,51.7-51.7,84.6-43.1c33,8.5,171.1,39.8,171.1,39.8
			L477.7,518.2z"/>
		<path class="st22" d="M764.8,175.2l-86.7,49.5l-2.7-63.1l75.8-43.3c6-3.4,11.1-1.4,11.3,4.5L764.8,175.2z"/>
		<polygon class="st22" points="689.4,252.9 671.1,263.4 667,166.5 685.3,156 		"/>
	</g>
	
		<ellipse transform="matrix(0.6076 -0.7943 0.7943 0.6076 11.0343 669.1846)" class="st15" cx="682.7" cy="323.4" rx="49.9" ry="29.6"/>
	
		<ellipse transform="matrix(0.6076 -0.7943 0.7943 0.6076 11.0343 669.1846)" class="st21" cx="682.7" cy="323.4" rx="38.8" ry="23"/>
</g>
</svg>
